<?xml version="1.0" encoding="utf-8" ?>
<svg baseProfile="full" height="100%" version="1.1" viewBox="-10,-10,20,20" width="100%" xmlns="http://www.w3.org/2000/svg" xmlns:ev="http://www.w3.org/2001/xml-events" xmlns:xlink="http://www.w3.org/1999/xlink"><defs /><line stroke="rgb(0,0,0)" stroke-width="0.1" x1="0.09289819836105147" x2="-0.3619211817577272" y1="0.3902182650848167" y2="0.5384468094475708" /><line stroke="rgb(0,0,0)" stroke-width="0.1" x1="-0.3619211817577272" x2="-0.7839799973044699" y1="0.5384468094475708" y2="0.29042526363693216" /><line stroke="rgb(0,0,0)" stroke-width="0.1" x1="-0.7839799973044699" x2="-0.9784960977057707" y1="0.29042526363693216" y2="-0.16286506626830788" /><line stroke="rgb(0,0,0)" stroke-width="0.1" x1="-0.9784960977057707" x2="-0.9189495766815152" y1="-0.16286506626830788" y2="-0.6543394736084763" /><line stroke="rgb(0,0,0)" stroke-width="0.1" x1="-0.9189495766815152" x2="-0.6475660466120168" y1="-0.6543394736084763" y2="-1.0696574098228706" /><line stroke="rgb(0,0,0)" stroke-width="0.1" x1="-0.6475660466120168" x2="-0.2322907186517596" y1="-1.0696574098228706" y2="-1.3423615992539484" /><line stroke="rgb(0,0,0)" stroke-width="0.1" x1="-0.2322907186517596" x2="0.25454717670271754" y1="-1.3423615992539484" y2="-1.4438026356533673" /><line stroke="rgb(0,0,0)" stroke-width="0.1" x1="0.25454717670271754" x2="0.747150725998024" y1="-1.4438026356533673" y2="-1.373101375979713" /><line stroke="rgb(0,0,0)" stroke-width="0.1" x1="0.747150725998024" x2="1.1915042996633824" y1="-1.373101375979713" y2="-1.1484230767371901" /><line stroke="rgb(0,0,0)" stroke-width="0.1" x1="1.1915042996633824" x2="1.5473441829830246" y1="-1.1484230767371901" y2="-0.7998183956952277" /><line stroke="rgb(0,0,0)" stroke-width="0.1" x1="1.5473441829830246" x2="1.7881956250473314" y1="-0.7998183956952277" y2="-0.36356866022386064" /><line stroke="rgb(0,0,0)" stroke-width="0.1" x1="1.7881956250473314" x2="1.900289376731875" y1="-0.36356866022386064" y2="0.1221307489006143" /><line stroke="rgb(0,0,0)" stroke-width="0.1" x1="1.900289376731875" x2="1.8808709722042491" y1="0.1221307489006143" y2="0.6203419351975877" /><line stroke="rgb(0,0,0)" stroke-width="0.1" x1="1.8808709722042491" x2="1.7362339746100857" y1="0.6203419351975877" y2="1.0976008605551886" /><line stroke="rgb(0,0,0)" stroke-width="0.1" x1="1.7362339746100857" x2="1.4796918766393397" y1="1.0976008605551886" y2="1.5253533897353806" /><line stroke="rgb(0,0,0)" stroke-width="0.1" x1="1.4796918766393397" x2="1.1296259394338024" y1="1.5253533897353806" y2="1.8807664611627173" /><line stroke="rgb(0,0,0)" stroke-width="0.1" x1="1.1296259394338024" x2="0.7076935618026792" y1="1.8807664611627173" y2="2.1470496169467705" /><line stroke="rgb(0,0,0)" stroke-width="0.1" x1="0.7076935618026792" x2="0.2372453950155325" y1="2.1470496169467705" y2="2.3134026526606504" /><line stroke="rgb(0,0,0)" stroke-width="0.1" x1="0.2372453950155325" x2="-0.25802581785738" y1="2.3134026526606504" y2="2.3746871448414995" /><line stroke="rgb(0,0,0)" stroke-width="0.1" x1="-0.25802581785738" x2="-0.7551991311944849" y1="2.3746871448414995" y2="2.3309033673360124" /><line stroke="rgb(0,0,0)" stroke-width="0.1" x1="-0.7551991311944849" x2="-1.2330083301737063" y1="2.3309033673360124" y2="2.1865396810578455" /><line stroke="rgb(0,0,0)" stroke-width="0.1" x1="-1.2330083301737063" x2="-1.6725080607362346" y1="2.1865396810578455" y2="1.9498488260319138" /><line stroke="rgb(0,0,0)" stroke-width="0.1" x1="-1.6725080607362346" x2="-2.0575422154826515" y1="1.9498488260319138" y2="1.632094552895708" /><line stroke="rgb(0,0,0)" stroke-width="0.1" x1="-2.0575422154826515" x2="-2.3750364043351713" y1="1.632094552895708" y2="1.2468025697435412" /><line stroke="rgb(0,0,0)" stroke-width="0.1" x1="-2.3750364043351713" x2="-2.6151375545138085" y1="1.2468025697435412" y2="0.8090417061829713" /><line stroke="rgb(0,0,0)" stroke-width="0.1" x1="-2.6151375545138085" x2="-2.771223781053612" y1="0.8090417061829713" y2="0.3347543665749644" /><line stroke="rgb(0,0,0)" stroke-width="0.1" x1="-2.771223781053612" x2="-2.839806973587688" y1="0.3347543665749644" y2="-0.15985037915952807" /><line stroke="rgb(0,0,0)" stroke-width="0.1" x1="-2.839806973587688" x2="-2.820349304563638" y1="-0.15985037915952807" y2="-0.6588324656757466" /><line stroke="rgb(0,0,0)" stroke-width="0.1" x1="-2.820349304563638" x2="-2.7150132657747728" y1="-0.6588324656757466" y2="-1.1469805520050846" /><line stroke="rgb(0,0,0)" stroke-width="0.1" x1="-2.7150132657747728" x2="-2.5283630259798966" y1="-1.1469805520050846" y2="-1.6101942231714788" /><line stroke="rgb(0,0,0)" stroke-width="0.1" x1="-2.5283630259798966" x2="-2.267032979523404" y1="-1.6101942231714788" y2="-2.035789602218498" /><line stroke="rgb(0,0,0)" stroke-width="0.1" x1="-2.267032979523404" x2="-1.939377404382405" y1="-2.035789602218498" y2="-2.412731240685179" /><line stroke="rgb(0,0,0)" stroke-width="0.1" x1="-1.939377404382405" x2="-1.5551132271491144" y1="-2.412731240685179" y2="-2.731794618709092" /><line stroke="rgb(0,0,0)" stroke-width="0.1" x1="-1.5551132271491144" x2="-1.124966044954146" y1="-2.731794618709092" y2="-2.9856646447569375" /><line stroke="rgb(0,0,0)" stroke-width="0.1" x1="-1.124966044954146" x2="-0.6603278103270257" y1="-2.9856646447569375" y2="-3.168976263400199" /><line stroke="rgb(0,0,0)" stroke-width="0.1" x1="-0.6603278103270257" x2="-0.17293296457402557" y1="-3.168976263400199" y2="-3.2783037140549114" /><line stroke="rgb(0,0,0)" stroke-width="0.1" x1="-0.17293296457402557" x2="0.32544167924507766" y1="-3.2783037140549114" y2="-3.3121051838914877" /><line stroke="rgb(0,0,0)" stroke-width="0.1" x1="0.32544167924507766" x2="0.8232493449436775" y1="-3.3121051838914877" y2="-3.270629607719891" /><line stroke="rgb(0,0,0)" stroke-width="0.1" x1="0.8232493449436775" x2="1.3094152330488082" y1="-3.270629607719891" y2="-3.1557922245034673" /><line stroke="rgb(0,0,0)" stroke-width="0.1" x1="1.3094152330488082" x2="1.7735462878600043" y1="-3.1557922245034673" y2="-2.971025237144803" /><line stroke="rgb(0,0,0)" stroke-width="0.1" x1="1.7735462878600043" x2="2.2061080066047003" y1="-2.971025237144803" y2="-2.7211095676805046" /><line stroke="rgb(0,0,0)" stroke-width="0.1" x1="2.2061080066047003" x2="2.598568293332807" y1="-2.7211095676805046" y2="-2.411993278321975" /><line stroke="rgb(0,0,0)" stroke-width="0.1" x1="2.598568293332807" x2="2.9435090246066213" y1="-2.411993278321975" y2="-2.0506017605670777" /><line stroke="rgb(0,0,0)" stroke-width="0.1" x1="2.9435090246066213" x2="3.2347065437514306" y1="-2.0506017605670777" y2="-1.6446442973434987" /><line stroke="rgb(0,0,0)" stroke-width="0.1" x1="3.2347065437514306" x2="3.4671827446126406" y1="-1.6446442973434987" y2="-1.2024210914336444" /><line stroke="rgb(0,0,0)" stroke-width="0.1" x1="3.4671827446126406" x2="3.6372287538305867" y1="-1.2024210914336444" y2="-0.7326343393581677" /><line stroke="rgb(0,0,0)" stroke-width="0.1" x1="3.6372287538305867" x2="3.7424034820243266" y1="-0.7326343393581677" y2="-0.24420642332839024" /><line stroke="rgb(0,0,0)" stroke-width="0.1" x1="3.7424034820243266" x2="3.7815094982408057" y1="-0.24420642332839024" y2="0.25389219725620654" /><line stroke="rgb(0,0,0)" stroke-width="0.1" x1="3.7815094982408057" x2="3.7545487975553216" y1="0.25389219725620654" y2="0.7528032827587444" /><line stroke="rgb(0,0,0)" stroke-width="0.1" x1="3.7545487975553216" x2="3.6626610873910668" y1="0.7528032827587444" y2="1.243927629735983" /><line stroke="rgb(0,0,0)" stroke-width="0.1" x1="3.6626610873910668" x2="3.5080472220878325" y1="1.243927629735983" y2="1.7190571509946821" /><line stroke="rgb(0,0,0)" stroke-width="0.1" x1="3.5080472220878325" x2="3.2938803751097168" y1="1.7190571509946821" y2="2.1704913441937568" /><line stroke="rgb(0,0,0)" stroke-width="0.1" x1="3.2938803751097168" x2="3.024207461117135" y1="2.1704913441937568" y2="2.5911376208661774" /><line stroke="rgb(0,0,0)" stroke-width="0.1" x1="3.024207461117135" x2="2.703843212461449" y1="2.5911376208661774" y2="2.9745952801624767" /><line stroke="rgb(0,0,0)" stroke-width="0.1" x1="2.703843212461449" x2="2.3382591824548844" y1="2.9745952801624767" y2="3.31522318946858" /><line stroke="rgb(0,0,0)" stroke-width="0.1" x1="2.3382591824548844" x2="1.9334697964336844" y1="3.31522318946858" y2="3.608191477814809" /><line stroke="rgb(0,0,0)" stroke-width="0.1" x1="1.9334697964336844" x2="1.4959174060385154" y1="3.608191477814809" y2="3.8495177585991245" /><line stroke="rgb(0,0,0)" stroke-width="0.1" x1="1.4959174060385154" x2="1.0323581266307515" y1="3.8495177585991245" y2="4.036088576877591" /><line stroke="rgb(0,0,0)" stroke-width="0.1" x1="1.0323581266307515" x2="0.549750056195824" y1="4.036088576877591" y2="4.165666924885108" /><line stroke="rgb(0,0,0)" stroke-width="0.1" x1="0.549750056195824" x2="0.05514528983102248" y1="4.165666924885108" y2="4.236886789304317" /><line stroke="rgb(0,0,0)" stroke-width="0.1" x1="0.05514528983102248" x2="-0.4444130400933466" y1="4.236886789304317" y2="4.249235787014647" /><line stroke="rgb(0,0,0)" stroke-width="0.1" x1="-0.4444130400933466" x2="-0.9419876492583646" y1="4.249235787014647" y2="4.203027014640652" /><line stroke="rgb(0,0,0)" stroke-width="0.1" x1="-0.9419876492583646" x2="-1.4308370397221493" y1="4.203027014640652" y2="4.099361283250383" /><line stroke="rgb(0,0,0)" stroke-width="0.1" x1="-1.4308370397221493" x2="-1.9044977884539072" y1="4.099361283250383" y2="3.940080935121862" /><line stroke="rgb(0,0,0)" stroke-width="0.1" x1="-1.9044977884539072" x2="-2.3568586448610134" y1="3.940080935121862" y2="3.727716446679693" /><line stroke="rgb(0,0,0)" stroke-width="0.1" x1="-2.3568586448610134" x2="-2.7822260484037327" y1="3.727716446679693" y2="3.4654270125502022" /><line stroke="rgb(0,0,0)" stroke-width="0.1" x1="-2.7822260484037327" x2="-3.175380819552014" y1="3.4654270125502022" y2="3.156936282180369" /><line stroke="rgb(0,0,0)" stroke-width="0.1" x1="-3.175380819552014" x2="-3.531625908703689" y1="3.156936282180369" y2="2.806464384528346" /><line stroke="rgb(0,0,0)" stroke-width="0.1" x1="-3.531625908703689" x2="-3.8468252078259297" y1="2.806464384528346" y2="2.4186573297890273" /><line stroke="rgb(0,0,0)" stroke-width="0.1" x1="-3.8468252078259297" x2="-4.1174335382631995" y1="2.4186573297890273" y2="1.998514821697738" /><line stroke="rgb(0,0,0)" stroke-width="0.1" x1="-4.1174335382631995" x2="-4.340518025305419" y1="1.998514821697738" y2="1.5513174512833654" /><line stroke="rgb(0,0,0)" stroke-width="0.1" x1="-4.340518025305419" x2="-4.513771155802894" y1="1.5513174512833654" y2="1.0825541745354768" /><line stroke="rgb(0,0,0)" stroke-width="0.1" x1="-4.513771155802894" x2="-4.635515889550816" y1="1.0825541745354768" y2="0.5978509037097401" /><line stroke="rgb(0,0,0)" stroke-width="0.1" x1="-4.635515889550816" x2="-4.7047032586514295" y1="0.5978509037097401" y2="0.1029009662103494" /><line stroke="rgb(0,0,0)" stroke-width="0.1" x1="-4.7047032586514295" x2="-4.720902941992278" y1="0.1029009662103494" y2="-0.3966018926699006" /><line stroke="rgb(0,0,0)" stroke-width="0.1" x1="-4.720902941992278" x2="-4.6842873448228275" y1="-0.3966018926699006" y2="-0.8950273653403745" /><line stroke="rgb(0,0,0)" stroke-width="0.1" x1="-4.6842873448228275" x2="-4.595609746697676" y1="-0.8950273653403745" y2="-1.3868687763544434" /><line stroke="rgb(0,0,0)" stroke-width="0.1" x1="-4.595609746697676" x2="-4.456177105355664" y1="-1.3868687763544434" y2="-1.8667991735730551" /><line stroke="rgb(0,0,0)" stroke-width="0.1" x1="-4.456177105355664" x2="-4.267818120028708" y1="-1.8667991735730551" y2="-2.329722949550222" /><line stroke="rgb(0,0,0)" stroke-width="0.1" x1="-4.267818120028708" x2="-4.032847165852949" y1="-2.329722949550222" y2="-2.7708226999090444" /><line stroke="rgb(0,0,0)" stroke-width="0.1" x1="-4.032847165852949" x2="-3.7540247121330292" y1="-2.7708226999090444" y2="-3.185601095835523" /><line stroke="rgb(0,0,0)" stroke-width="0.1" x1="-3.7540247121330292" x2="-3.434514831838978" y1="-3.185601095835523" y2="-3.569917614806559" /><line stroke="rgb(0,0,0)" stroke-width="0.1" x1="-3.434514831838978" x2="-3.077840398542977" y1="-3.569917614806559" y2="-3.9200200369122284" /><line stroke="rgb(0,0,0)" stroke-width="0.1" x1="-3.077840398542977" x2="-2.687836550670719" y1="-3.9200200369122284" y2="-4.232570673329969" /><line stroke="rgb(0,0,0)" stroke-width="0.1" x1="-2.687836550670719" x2="-2.268602982078226" y1="-4.232570673329969" y2="-4.504667348429114" /><line stroke="rgb(0,0,0)" stroke-width="0.1" x1="-2.268602982078226" x2="-1.8244555931756894" y1="-4.504667348429114" y2="-4.733859207468084" /><line stroke="rgb(0,0,0)" stroke-width="0.1" x1="-1.8244555931756894" x2="-1.3598780086955626" y1="-4.733859207468084" y2="-4.918157467785428" /><line stroke="rgb(0,0,0)" stroke-width="0.1" x1="2.074114314774527" x2="2.535944155903614" y1="-4.881814100310721" y2="-4.690689732423045" /><line stroke="rgb(0,0,0)" stroke-width="0.1" x1="2.535944155903614" x2="2.9778172512039736" y1="-4.690689732423045" y2="-4.457097278645657" /><line stroke="rgb(0,0,0)" stroke-width="0.1" x1="2.9778172512039736" x2="3.39597370053278" y1="-4.457097278645657" y2="-4.183301093463661" /><line stroke="rgb(0,0,0)" stroke-width="0.1" x1="3.39597370053278" x2="3.786917261857764" y1="-4.183301093463661" y2="-3.8718782936717817" /><line stroke="rgb(0,0,0)" stroke-width="0.1" x1="3.786917261857764" x2="4.147438540352959" y1="-3.8718782936717817" y2="-3.525688664326932" /><line stroke="rgb(0,0,0)" stroke-width="0.1" x1="4.147438540352959" x2="4.474634921071153" y1="-3.525688664326932" y2="-3.147843237265044" /><line stroke="rgb(0,0,0)" stroke-width="0.1" x1="4.474634921071153" x2="4.765927225176719" y1="-3.147843237265044" y2="-2.741671866020479" /><line stroke="rgb(0,0,0)" stroke-width="0.1" x1="4.997116023448466" x2="4.745061562660975" y1="2.9756689497963693" y2="3.4073110304165817" /><line stroke="rgb(0,0,0)" stroke-width="0.1" x1="4.745061562660975" x2="4.456983171473476" y1="3.4073110304165817" y2="3.8157942293998968" /><line stroke="rgb(0,0,0)" stroke-width="0.1" x1="4.456983171473476" x2="4.13513867453623" y1="3.8157942293998968" y2="4.198240468883713" /><line stroke="rgb(0,0,0)" stroke-width="0.1" x1="4.13513867453623" x2="3.7820007031830847" y1="4.198240468883713" y2="4.551997277590697" /><line stroke="rgb(0,0,0)" stroke-width="0.1" x1="3.7820007031830847" x2="3.4002343617189075" y1="4.551997277590697" y2="4.874651961533198" /><line stroke="rgb(0,0,0)" stroke-width="0.1" x1="-4.044433052767912" x2="-4.431626106476761" y1="4.874491051901801" y2="4.558339290885622" /><line stroke="rgb(0,0,0)" stroke-width="0.1" x1="-4.431626106476761" x2="-4.792753934040375" y1="4.558339290885622" y2="4.21271225453161" /></svg>